<svg width="570" height="220" viewBox="0.00 11.00 284.75 110.25" xmlns="http://www.w3.org/2000/svg">
  <defs>
    <clipPath id="leftHalf"><rect x="0" y="0" width="32" height="64"/></clipPath>
    <clipPath id="rightHalf"><rect x="32" y="0" width="32" height="64"/></clipPath>
    <clipPath id="circleClip"><circle cx="32" cy="32" r="32"/></clipPath>
    <linearGradient id="leftGrad" x1="0%" y1="0%" x2="100%" y2="100%">
      <stop offset="0%" stop-color="#F5F5F5"/><stop offset="100%" stop-color="#D8D8D8"/>
    </linearGradient>
    <linearGradient id="rightGrad" x1="0%" y1="0%" x2="100%" y2="100%">
      <stop offset="0%" stop-color="#E8E8E8"/><stop offset="100%" stop-color="#C0C0C0"/>
    </linearGradient>
    <radialGradient id="sheen" cx="35%" cy="22%" r="65%">
      <stop offset="0%" stop-color="#FFFFFF" stop-opacity="0.25"/><stop offset="60%" stop-color="#FFFFFF" stop-opacity="0"/>
    </radialGradient>
    <radialGradient id="labelGrad" cx="35%" cy="30%" r="70%">
      <stop offset="0%" stop-color="#FFFFFF" stop-opacity="0.25"/><stop offset="100%" stop-color="#FFFFFF" stop-opacity="0.06"/>
    </radialGradient>
    <filter id="iconShadow" x="-60%" y="-60%" width="220%" height="220%">
      <feDropShadow dx="0" dy="1.5" stdDeviation="2.2" flood-color="#000000" flood-opacity="0.18"/>
    </filter>
    <filter id="letterShadow" x="-50%" y="-50%" width="200%" height="200%">
      <feDropShadow dx="0" dy="0.8" stdDeviation="1" flood-color="#000000" flood-opacity="0.15"/>
    </filter>
</defs>
  <g transform="translate(2,17) scale(1.5)">
  <g filter="url(#iconShadow)">
    <g clip-path="url(#leftHalf)"><circle cx="32" cy="32" r="32" fill="url(#leftGrad)"/></g>
    <g clip-path="url(#rightHalf)"><circle cx="32" cy="32" r="32" fill="url(#rightGrad)"/></g>
    <g clip-path="url(#circleClip)">
      <circle cx="32" cy="32" r="31.00" fill="none" stroke="#000000" stroke-width="0.55" opacity="0.14"/><circle cx="32" cy="32" r="28.80" fill="none" stroke="#000000" stroke-width="0.55" opacity="0.14"/><circle cx="32" cy="32" r="26.60" fill="none" stroke="#000000" stroke-width="0.55" opacity="0.14"/><circle cx="32" cy="32" r="24.40" fill="none" stroke="#000000" stroke-width="0.55" opacity="0.14"/><circle cx="32" cy="32" r="22.20" fill="none" stroke="#000000" stroke-width="0.55" opacity="0.14"/><circle cx="32" cy="32" r="20.00" fill="none" stroke="#000000" stroke-width="0.55" opacity="0.14"/><circle cx="32" cy="32" r="17.80" fill="none" stroke="#000000" stroke-width="0.55" opacity="0.14"/><circle cx="32" cy="32" r="15.60" fill="none" stroke="#000000" stroke-width="0.55" opacity="0.14"/><circle cx="32" cy="32" r="13.40" fill="none" stroke="#000000" stroke-width="0.55" opacity="0.14"/><circle cx="32" cy="32" r="11.20" fill="none" stroke="#000000" stroke-width="0.55" opacity="0.14"/><circle cx="32" cy="32" r="9.00" fill="none" stroke="#000000" stroke-width="0.55" opacity="0.14"/>
      <circle cx="32" cy="32" r="30.00" fill="none" stroke="#FFFFFF" stroke-width="0.4" opacity="0.10"/><circle cx="32" cy="32" r="27.80" fill="none" stroke="#FFFFFF" stroke-width="0.4" opacity="0.10"/><circle cx="32" cy="32" r="25.60" fill="none" stroke="#FFFFFF" stroke-width="0.4" opacity="0.10"/><circle cx="32" cy="32" r="23.40" fill="none" stroke="#FFFFFF" stroke-width="0.4" opacity="0.10"/><circle cx="32" cy="32" r="21.20" fill="none" stroke="#FFFFFF" stroke-width="0.4" opacity="0.10"/><circle cx="32" cy="32" r="19.00" fill="none" stroke="#FFFFFF" stroke-width="0.4" opacity="0.10"/><circle cx="32" cy="32" r="16.80" fill="none" stroke="#FFFFFF" stroke-width="0.4" opacity="0.10"/><circle cx="32" cy="32" r="14.60" fill="none" stroke="#FFFFFF" stroke-width="0.4" opacity="0.10"/><circle cx="32" cy="32" r="12.40" fill="none" stroke="#FFFFFF" stroke-width="0.4" opacity="0.10"/><circle cx="32" cy="32" r="10.20" fill="none" stroke="#FFFFFF" stroke-width="0.4" opacity="0.10"/><circle cx="32" cy="32" r="8.00" fill="none" stroke="#FFFFFF" stroke-width="0.4" opacity="0.10"/>
      <circle cx="32" cy="32" r="12.5" fill="url(#labelGrad)"/>
      <circle cx="32" cy="32" r="12.5" fill="none" stroke="#000000" stroke-width="0.6" opacity="0.18"/>
      <circle cx="32" cy="32" r="1.6" fill="#000000" opacity="0.5"/>
    </g>
    <circle cx="32" cy="32" r="32" fill="url(#sheen)"/>
  </g>
  <text x="32" y="54" font-family="Liberation Sans, Arial, sans-serif" font-weight="700"
        font-size="64" text-anchor="middle" fill="#1A1A1A" filter="url(#letterShadow)">S</text>
</g>
  <text x="122" y="75" font-family="Liberation Sans, Arial, sans-serif" font-weight="700"
        font-size="48" fill="#FFFFFF">Sona</text>
  <text x="125" y="100" font-family="Liberation Sans, Arial, sans-serif" font-weight="700"
        font-size="16" letter-spacing="0.5" fill="#D8D8D8">ARTIST + FAN HUB</text>
</svg>